<!-- Generator: Adobe Illustrator 23.0.1, SVG Export Plug-In  -->
<svg version="1.1" xmlns="http://www.w3.org/2000/svg" xmlns:xlink="http://www.w3.org/1999/xlink" x="0px" y="0px"
	 width="694.96px" height="388.9px" viewBox="0 0 694.96 388.9" style="enable-background:new 0 0 694.96 388.9;"
	 xml:space="preserve">
<style type="text/css">
	.st0{fill-rule:evenodd;clip-rule:evenodd;fill:#FFFFFF;}
</style>
<defs>
</defs>
<path class="st0" d="M347.5,209.87L347.5,209.87c10.48,0.61,12.17,0.89,15.15,5.49c3.55,5.49-2.02,15.46-8.03,27.7
	c-2.14,4.38,2.56,7.06,5.85,4.36c35.95-29.5,74.17-61.48,90.83-106.91c4.06-11.12,6.37-23.07,6.54-35.53
	C458.66,46.96,413.2-0.04,356.27,0c-56.85,0.02-103.61,47.08-104.41,105.08C251.06,161.05,293.42,206.8,347.5,209.87 M274.08,79.23
	c-2.51,8.16-3.88,16.86-3.88,25.84c0.02,32.81,18.06,61.33,44.55,75.85l3.25-5.59c0.53-0.92,0.24-2.15,0-3.13l-1.47-6.1
	c-0.23-1-0.14-1.82,0.14-2.2c1.13-1.56,1.44-2.2,1.2-2.67c-0.49-1.13-1.35-0.91-2.55-1.2c-1.21-0.53-1.87-1.34-2.35-2.59
	c-1.63-4.36-1.92-11.77-3.57-16.15c-0.49-1.36-0.6-1.94,0.27-3.09c0.79-1.07,1.61-2.16,2.37-3.21c0.76-0.99,0.81-1.24,0.84-2.46
	c0.07-1.6,0.16-3.15,0.19-4.71c0.06-0.72,0.4-1.44,0.98-1.91l2.71-2.23c0.63-0.52,1.56-0.08,1.77,0.36l1.7,3.01
	c0.64,0.68,0.76,1,1.77,0.68c0.58-0.18,1.31-0.45,1.99-0.64c0.61-0.21,1.64-0.15,2.2,0.19c0.24,0.12,0.43,0.26,0.69,0.4
	c0.64,0.42,1.28,0.48,2.02,0.33c0.48-0.13,1-0.23,1.49-0.33c0.68-0.14,1.29,0.27,1.91,0.52l7.75,2.96c0.79,0.62,0.96,0.63,2.03,0.55
	c1.29-0.11,2.57-0.24,3.91-0.35c0.83-0.09,1.66,0.15,2.26,0.76c1.05,1.17,2.07,2.32,3.19,3.5c0.62,0.64,0.78,1.45,0.68,2.31
	c-0.1,0.67-0.16,1.38-0.26,2.03c-0.12,0.76-0.09,1.06,0.77,0.95c1.31-0.16,2.64-0.34,3.95-0.51c0.72-0.13,1.51,0.02,2.15,0.28
	c3.92,1.55,6.55,5.47,10.47,7.03c1.22,0.51,1.72,1.32,1.7,2.64c-0.06,1.1-0.12,2.17-0.15,3.29c-0.06,1.01-0.43,1.5-1.27,2.02
	c-1.29,0.81-2.55,1.63-3.8,2.41c-0.72,0.44-1.21,1.05-1.27,1.92c-0.06,0.55-0.06,1.12-0.12,1.68c-0.05,0.98-0.13,1.57-0.84,2.24
	c-1.21,1.21-2.38,2.42-3.63,3.62c-0.83,0.86-1.45,1.09-2.63,1.02c-0.71-0.07-1.44-0.16-2.13-0.19c-0.89-0.05-1.59,0.24-2.22,0.85
	c-1.43,1.56-5.8,5.25-7.21,6.78c-0.62,0.69-1.33,0.92-2.23,0.89c-1.49-0.07-3.01-0.17-4.54-0.26c-0.69-0.02-1.5,0.13-2.1,0.51
	c-0.29,0.2-10.15,8.8-10.44,8.99c0.41,0.11,0.79,0.26,1.21,0.46c8.54,2.96,17.7,4.54,27.19,4.54c39.94-0.02,73.42-28.3,82.18-66.33
	c-4.68,1.12-16.91,2.45-18.71,3.5c-1.23,0.69-2.22-0.06-2.55-1.31c-0.5-1.93-0.98-3.8-1.47-5.73c-0.74-2.89-3.49-2.61-5.66-1.37
	c-1.97,1.11-3.94,2.22-5.87,3.31c-1.16,0.69-2.43,0.44-3.21-0.61c-2.39-3.05-4.79-6.11-7.18-9.2c-1.03-1.32-1.72-2.51-1.67-4.25
	c0.08-2,0.11-3.98,0.17-5.99c0.05-1.68,0.28-4.02,1.24-5.43c0.97-1.37,1.9-2.79,2.87-4.18c0.59-0.88,1.18-1.28,0.54-2.32
	c-0.41-0.68-0.78-1.06-0.17-1.93l7.52-9.23c0.88-0.95,1.94-0.78,2.15-0.21c0.2,0.77,0.78,1.13,1.49,1.21
	c0.53,0.09,1.02,0.15,1.55,0.24c1.15,0.15,1.65-0.04,2.34-0.95c1.33-1.65,2.61-3.3,3.89-4.98c0.65-0.83,0.42-1.63,0.24-2.54
	l-3.99-8.21c-1.03-2.04-2.31-1.59-2.94-0.08l-2.53,6.56c-0.35,0.87-0.73,1.13-1.55,0.54l-2.18-1.51c-0.72-0.52-1.18-0.37-1.78,0.22
	c-0.51,0.46-0.98,0.91-1.47,1.36c-0.53,0.52-0.6,1.21-0.3,1.85c0.5,1.08,1.01,2.14,1.5,3.22c0.3,0.71,0.31,1.16-0.2,1.76
	c-0.8,0.9-1.57,1.82-2.38,2.73c-0.27,0.32-1.2,0.75-1.62,0.69c-0.52-0.04-1.05-0.1-1.58-0.16c-0.82-0.09-0.97-0.15-1.32-0.92
	c-0.91-2-1.98-4.37-2.47-5.48c-0.55-1.27-0.18-1.62,0.14-2.1c0.34-0.43,0.78-1.02,1.14-1.51c0.62-0.86,0.84-1.36-0.02-2.02
	c-0.54-0.37-1.09-0.77-1.6-1.17c-0.68-0.49-0.86-1.25-0.83-2.04c0.03-2.23,0.06-4.43,0.07-6.66c0-0.69,0-1.15,0.54-1.68
	c0.26-0.29,0.56-0.55,0.81-0.85c0.45-0.4,0.33-0.91-0.03-1.34c-0.95-1.09-1.92-2.14-2.89-3.22c-0.45-0.55-0.88-0.07-0.95,0.49
	c-0.05,0.59-0.13,1.21-0.2,1.83c-0.09,0.9-0.43,0.99-1.23,0.85c-0.65-0.12-1.25-0.23-1.9-0.36c-0.76-0.13-1.48-0.43-2.06-0.99
	c-1.86-1.65-3.72-3.36-5.6-5.03c-0.89-0.76-1-1.14-1.23-2.29c-0.09-0.35-0.18-0.71-0.24-1.09c-0.12-0.5,0.18-0.98,0.65-1.19
	c1.2-0.57,4.61-3.12,5.78-3.68c0.68-0.31,4.21,1.22,4.89,0.97l18.57-7.63c-13.79-9.94-30.62-15.81-48.81-15.78
	c-14.23,0-27.61,3.62-39.39,9.97l9.98,4.72c2.01,0.79,3.3,1,5.9,0.81l21.15-1.34c1.55-0.3,2.71-0.04,3.51,1.54
	c0.61,1.17,2.06,3.67,2.65,4.85c0.32,0.61,0.26,1.59-0.26,1.78c-0.22,0.11-0.43,0.17-0.61,0.24c-1.29,0.46-0.41,1.98,0.27,2.59
	c1.02,0.95,2.08,1.91,3.14,2.81c0.88,0.77,0.83,1.53,0.27,2.32c-0.73,1.08-1.58,2.07-2.38,3.12c-0.15,0.52-0.29,1.05-0.42,1.55
	c-0.03,1.75-0.06,3.53-0.07,5.31c-0.03,1.39-0.44,1.8-1.7,1.86c-1.24,0.06-2.5,0.11-3.75,0.19c-1.69,0.09-2.25-0.11-3.16-1.49
	c-0.68-0.96-1.39-1.96-2.06-2.96c-0.59-0.85-0.73-1.99-0.2-2.93c0.23-0.42,0.5-0.86,0.76-1.3c0.51-0.85,0.02-1.58-0.56-2.16
	c-1.34-1.39-2.73-2.73-4.08-4.14c-0.66-0.66-1.27-1.13-1.97-0.19c-0.23,0.33-0.51,0.68-0.75,1c-0.64,0.91-0.63,0.96-0.04,1.9
	c0.64,0.95,1.29,1.93,1.9,2.86c0.37,0.53,0.33,1.71-0.16,2.12c-0.59,0.47-1.2,0.94-1.77,1.41c-0.55,0.45-1.52,0.56-2.08,0.16
	c-0.57-0.45-1.07-0.86-1.63-1.31c-0.82-0.61-2.12-0.46-3.01-0.09c-3.26,1.5-6.52,3.01-9.77,4.47c-1.8,0.83-1.4,1.59-1.06,3.21
	l1.89,3.73c0.53,0.55,1.26,1.22,2.1,0.74c0.59-0.33,1.18-0.64,1.74-0.97l3.22-5.23c0.63-0.94,1.44-1.32,2.57-1.08
	c1.58,0.35,3.19,0.72,4.81,1.08c1.8,0.4,2.32,0.78,3.03,2.53c1.23,2.95,2.45,5.92,3.7,8.88c0.41,0.98,0.48,2.2-0.6,2.7
	c-0.47,0.23-0.91,0.45-1.39,0.63c-0.55,0.25-1.81-0.09-2.27-0.48c-1.04-0.77-2.07-1.52-3.1-2.32c-1.06-0.79-1.3-1.11-2.55-0.23
	c-0.23,0.15-0.41,0.27-0.62,0.45c-1.09,0.76-1.14,1.37-0.7,2.6c0.17,0.47,0.36,0.94,0.54,1.4c0.48,1.27,0.1,1.71-0.93,2.42
	c-6.32,4.38-12.64,8.75-18.99,13.12l-2.01,8.73c-0.15,0.68-0.09,0.88-0.79,0.97l-1.45,0.09c-0.61,0.05-0.71-0.33-0.89-0.82
	l-0.83-4.16c-0.21-0.96-0.58-1.73-1.88-2c-1.68-0.35-3.36-0.69-5.03-1.01c-1.63-0.13-1.86-0.21-3.16,0.8
	c-0.39,0.41-0.8,0.81-1.17,1.17c-1.01,1.01-1.01,1.35-1.21,2.77l-0.93,6.25c-0.06,0.45,0.14,1.71,1.33,1.61l3.49-0.37
	c0.75-0.08,0.82-0.14,1.34,0.41l1.51,1.53c0.43,0.45,0.37,1.02,0.34,1.26l-0.53,2.05c0.06,0.28,0.09,0.62,0.4,0.71
	c0.91,0.32,1.8,0.64,2.75,0.94c0.53,0.21,0.75,0.4,0.76,1c-0.05,3.37-0.11,6.73-0.13,10.09c-0.04,0.61-0.27,0.78-0.8,0.85
	c-1.18,0.12-2.35,0.27-3.51,0.41c-0.41,0.05-0.84-0.3-0.93-0.7c-0.43-1.59-0.84-3.14-1.25-4.74c-0.12-0.49-0.47-0.87-0.94-1.08
	c-0.85-0.38-1.71-0.76-2.55-1.11c-0.7-0.32-0.75-0.35-1.05-1.05c-0.45-1.11-0.96-2.25-1.45-3.38c-0.28-0.58-0.41-0.72-0.91-1.1
	c-1.87-1.38-3.77-2.8-5.59-4.2c-0.67-0.47-0.81-0.69-0.78-1.51c0.1-5.69,0.25-11.34,0.37-17c0.02-0.95,0.41-2.79,0.88-3.65
	c0.73-1.41,2.25-3.01,0.53-4.21C289.29,81.04,277.8,79.78,274.08,79.23 M313.82,108.65L313.82,108.65c-0.4-0.24-0.58-0.63-0.31-1.11
	c0.23-0.45,0.47-0.89,0.7-1.33c0.27-0.47,0.82-0.47,1.21-0.18c1.6,1.29,3.24,2.58,4.87,3.85c0.38,0.3,0.41,0.57,0.11,0.98
	c-0.17,0.25-0.38,0.52-0.59,0.81c-0.29,0.44-0.69,0.26-1.08,0.02C317.08,110.68,315.47,109.67,313.82,108.65 M364.2,55.32
	L364.2,55.32c0.25-0.41,0.46-0.78,0.69-1.21c0.41-0.73,0.81-0.78,1.6-0.69c0.97,0.07,1.94,0.16,2.89,0.28
	c0.55,0.07,0.96,0.68,0.79,1.21c-0.13,0.38-0.24,0.73-0.33,1.11c-0.2,0.57-0.55,1.06-1.12,1.24c-0.47,0.14-0.93,0.28-1.38,0.43
	c-0.5,0.16-1.17,0-1.59-0.25c-0.31-0.18-0.66-0.37-1.01-0.6C364.25,56.59,363.94,55.85,364.2,55.32 M379.34,62.73L379.34,62.73
	c-0.5-0.46-0.43-0.82-0.38-1.09c0.1-0.27,0.1-0.22,0.21-0.58c0.13-0.36,0.25-0.5,0.88-0.18c0.62,0.33,3.01,1.34,3.82,1.67
	c0.81,0.35,0.91,0.51,0.4,0.97c-0.52,0.48-1.13,1.06-1.53,1.41c-0.37,0.36-0.65,0.36-1.14-0.12L379.34,62.73z M322.84,114.28
	L322.84,114.28c-0.05-0.14-0.08-0.76,0-0.94l0.59-1.06c0.13-0.27,0.77-0.36,0.87-0.32l2.09,0.59c0.57,0.14,0.6,0.05,0.64,0.65
	c0.05,0.26,0.05,0.52,0.07,0.8c0.05,0.63,0.08,0.57-0.54,0.82c-0.67,0.26-1.36,0.52-2,0.79c-0.61,0.24-0.66,0.44-0.99-0.15
	L322.84,114.28z M53.06,250.87l26.09-1.46c0,0,1.6-6.25,2.6-11.92c0.85-5.23,1.14-9.88,1.14-9.88l-79.16,0.03
	c0,0-1.43,5.12-2.46,10.64c-1,5.65-1.27,11.18-1.27,11.18l25.24,1.43L10.32,337.5c0,0,6.52,0.54,14.53,0.55
	c6.47-0.02,13.27-0.57,13.27-0.57L53.06,250.87z M99.93,283.25L99.93,283.25l-8.47,0c-4.94,0.01-7.79,2.04-8.53,6.27l-8.02,47.95
	c0,0-6.21,0.54-12.08,0.55c-5.14-0.01-11.34-0.55-11.34-0.55l8.89-52.31c3.31-19.16,14.91-22.81,34.83-22.83
	c4.97,0,8.16,0.6,8.16,0.6C103.45,272.95,99.93,283.25,99.93,283.25 M100.54,300.12L100.54,300.12c-0.71,4.2-1.14,8.1-1.12,11.75
	c0.17,15.94,8.25,25.55,29.12,25.54l32.14-0.02l12.78-74.52c0,0-12.24-0.6-33.25-0.58C117.41,262.31,105.1,272.65,100.54,300.12
	 M140.4,317.67L140.4,317.67l-7.83,0c-7.86,0-10.16-2.76-10.18-7.84c-0.04-2.61,0.55-5.83,1.25-9.7
	c2.28-13.25,6.03-17.48,13.72-17.48l9.06-0.02L140.4,317.67z M246.58,279.69L246.58,279.69c0,1.6-0.13,3.48-0.42,5.37l-8.91,52.31
	c0,0-6.48,0.57-12.21,0.56c-5.27-0.01-11.33-0.54-11.33-0.54l8.29-49.28c0.73-4.23-0.66-6.22-6.09-6.2c-5-0.01-7.85,1.98-8.57,6.19
	l-8.28,49.28c0,0-6.19,0.58-12.09,0.57c-5.14,0-11.34-0.57-11.34-0.57l8.89-52.3c3.27-19.16,14.91-22.81,34.86-22.82
	C237.01,262.23,246.45,267.33,246.58,279.69 M277.84,285.47L277.84,285.47c0.07,3.65,2.33,4.09,8.38,5.22
	c13.31,2.61,19.4,8.56,19.49,18.59c0.23,20.79-15.85,28.62-34.77,28.63c-15.11-0.01-23.74-4.76-23.74-4.76
	c3.39-8.99,10.29-15.54,10.29-15.54s6.64,2.61,16.61,2.6c4.85,0,9.8-1.05,9.75-7.14c-0.03-3.76-2.44-4.35-9.26-5.18
	c-13.44-1.77-18.64-7.84-18.75-17.59c-0.17-19.48,12.88-28.6,31.18-28.62c14.04-0.01,23.88,4.63,23.88,4.63
	c-2.48,9.6-10.75,15.82-10.75,15.82s-5.59-2.89-14.81-2.9C280.99,279.22,277.82,280.69,277.84,285.47 M428.1,263.72L428.1,263.72
	l-33.6,73.55c0,0-6.5,0.57-11.48,0.56c-5.76,0-12.57-0.55-12.57-0.55L368.21,303c-0.17-1.46-0.17-3.03-0.2-4.48
	c-0.07-7.57,0.93-15.13,0.93-15.13l-1.21,0c0,0-2.64,10.77-6.19,19.61l-13.85,34.3c0,0-7.1,0.57-12.24,0.57
	c-4.82,0-11.78-0.55-11.78-0.55l-7.93-73.53c9.22-1.3,18.25-1.6,24.15-1.6l1.82,31.38c0.5,8.15-0.9,18.31-0.9,18.31l1.05,0
	c0,0,2.93-10.34,6.04-18.33l11.79-30.8c0,0,6.48-0.6,12.08-0.6c6.49,0,12.25,0.59,12.25,0.59l1.77,30.8c0.03,1.9,0.18,3.78,0.2,5.55
	c0.07,7.09-0.34,12.76-0.34,12.76l1.07,0c0,0,2.05-9.02,5.72-18.33l11.93-31.39C410.29,262.14,419.02,262.45,428.1,263.72
	 M462.54,261.58L462.54,261.58c-26.3-0.01-35.7,13.35-39.55,36.62c-0.85,4.92-1.26,9.28-1.23,13.33
	c0.15,17.28,8.57,26.61,27.57,26.58c23.11-0.01,35.68-14.09,40.26-39.97c0.87-4.8,1.27-9.17,1.25-13.09
	C490.7,269.95,483.37,261.55,462.54,261.58 M466.18,299.05L466.18,299.05c-2.12,12.63-5.72,19.16-13.39,19.17
	c-5.48,0-7.72-2.61-7.79-9.15c-0.03-2.77,0.39-6.71,1.09-10.6c2-12.52,5.29-16.6,12.99-16.6c5.59,0,8.03,1.75,8.06,7.86
	C467.17,292.06,466.77,295.55,466.18,299.05 M540.2,283.01c0,0,3.52-10.29,3.43-20.35c0,0-3.17-0.58-8.16-0.57
	c-19.93,0.02-31.53,3.66-34.8,22.82l-8.88,52.31c0,0,6.18,0.55,11.32,0.55c5.88,0.01,12.07-0.58,12.07-0.58l8-47.92
	c0.75-4.22,3.59-6.24,8.58-6.26L540.2,283.01z M580.47,226.78L580.47,226.78l-18.93,110.39c0,0-6.49,0.57-11.77,0.56
	c-6.33,0.01-12.38-0.55-12.38-0.55l17.65-102.86L580.47,226.78z M633.96,227.31L633.96,227.31l-6.03,34.72l-9.84,0
	c-30.39,0.02-41.04,22.11-40.81,46.38c0.17,16.14,8.13,28.76,29.11,28.76l32.17-0.02l18.92-109.85c0,0-6.04-0.55-11.77-0.56
	C639.5,226.74,633.96,227.31,633.96,227.31 M618.3,317.41L618.3,317.41l-7.85,0c-7.42,0-9.86-3.06-9.91-9.16
	c-0.1-9.87,2.33-25.87,14.72-25.86l9.07-0.01L618.3,317.41z M681.53,221.75L681.53,221.75c-7.39,0-13.41,6.15-13.41,13.71
	c0.01,7.54,6.05,13.67,13.43,13.66c7.4-0.01,13.41-6.14,13.41-13.69C694.94,227.88,688.93,221.75,681.53,221.75 M687.94,232.62
	c0.21-0.48,0.39-0.87,0.45-1.27c0.07-0.52,0.04-1.12-0.1-1.72c-0.18-0.62-0.44-1.21-0.79-1.74c-0.35-0.55-0.83-0.98-1.38-1.33
	c-0.53-0.35-1.17-0.57-1.88-0.57c-0.71,0-1.4,0.03-2.21,0.04c-0.72,0-1.41,0.03-2.07,0.03c-0.74,0-1.47,0.03-2.22,0.03l-3.15,18.7
	c0.11-0.01,0.23,0.03,0.35,0.03c0.12,0.03,0.23,0.02,0.38,0.04c0.15,0.02,0.33,0,0.51,0c0.14,0,0.28,0,0.4,0
	c0.14-0.02,0.29-0.02,0.37-0.04c0.15,0,0.29-0.04,0.4-0.04l1.35-7.96l3.64-0.24c0.17,1.04,0.38,2.06,0.64,3.02
	c0.28,0.99,0.52,1.89,0.75,2.68c0.26,0.92,0.55,1.79,0.81,2.62c0.34,0,0.67-0.04,0.95-0.08c0.32-0.04,0.59-0.13,0.82-0.18
	c0.26-0.06,0.53-0.13,0.77-0.24c-0.29-0.84-0.6-1.74-0.92-2.63c-0.23-0.82-0.49-1.68-0.76-2.62c-0.27-0.97-0.47-1.94-0.68-2.93
	c0.54-0.27,1.02-0.57,1.47-0.96c0.45-0.39,0.87-0.84,1.23-1.28C687.41,233.51,687.69,233.05,687.94,232.62 M685.85,230.23
	L685.85,230.23c0.08,0.43,0.08,0.77,0.07,1.13c-0.07,0.29-0.21,0.62-0.44,1.01c-0.23,0.35-0.5,0.67-0.83,0.97
	c-0.32,0.3-0.67,0.55-1.05,0.79c-0.37,0.2-0.73,0.31-1.07,0.35l-3.82,0.23l1.14-6.55l3.81-0.05c0.38,0,0.72,0.09,1.04,0.28
	c0.3,0.25,0.59,0.51,0.76,0.84C685.65,229.5,685.75,229.86,685.85,230.23 M5.13,388.74L5.13,388.74c0,0-0.62,0.13-1.42,0.13
	c-0.8,0-1.4-0.1-1.4-0.1l3.58-21.21c0,0,0.64-0.11,1.37-0.13c0.82,0,1.49,0.11,1.49,0.11L5.13,388.74z M97.38,388.69L97.38,388.69
	l3.6-21.2c0,0,2.32-0.1,4.94-0.1c5.54,0,8.1,3.65,8.1,8.07c0,6.35-4.48,13.3-11.77,13.31C98.97,388.78,97.38,388.69,97.38,388.69
	 M111.18,375.63L111.18,375.63c-0.01-3.37-1.86-5.7-5.97-5.69c-0.86,0-1.9,0.03-1.9,0.03l-2.78,16.26c0,0-0.15,0.05,1.91,0.04
	C107.95,386.27,111.17,380.95,111.18,375.63 M205.71,388.63L205.71,388.63c0,0-0.64,0.11-1.41,0.11c-0.8,0-1.42-0.11-1.42-0.11
	l3.57-21.18c0,0,0.64-0.12,1.39-0.12c0.83,0.01,1.46,0.12,1.46,0.12L205.71,388.63z M308.46,367.09L308.46,367.09
	c4.31-0.01,6.57,2,6.57,6.76c0,6.1-2.54,15.05-10.29,15.05c-4.29,0-6.35-2.8-6.35-7.57C298.38,373.06,301.52,367.09,308.46,367.09
	 M301.16,381.4L301.16,381.4c0,3.24,1.18,5.07,3.99,5.07c4.77-0.01,7.05-6.79,7.05-12.63c-0.01-3.2-1.27-4.3-4.13-4.3
	C303.34,369.54,301.16,375.01,301.16,381.4 M422.14,369.23L422.14,369.23l-0.22,0c0,0-0.3,0.88-4.21,6.93l-3.86,6.03h-0.39
	l-1.77-5.76c-1.87-6.2-1.89-7.1-1.89-7.1l-0.17,0l-3.19,19.19c0,0-0.7,0.11-1.39,0.1c-0.81,0.01-1.33-0.1-1.33-0.1l3.57-21.2
	c0,0,1.03-0.08,2.21-0.08c1.29,0,2.38,0.08,2.38,0.08l1.84,6.51c0.68,2.34,0.72,2.92,0.72,2.92h0.18c0,0,0.16-0.55,1.63-2.83
	l4.26-6.59c0,0,1.11-0.1,2.17-0.1c1.22,0.01,2.41,0.09,2.41,0.09l-3.62,21.2c0,0-0.6,0.11-1.28,0.11c-0.82,0-1.4-0.11-1.4-0.11
	L422.14,369.23z M524.59,388.45L524.59,388.45c0.02-2.11-0.09-4.46-0.21-6.61l-7.4,0.54c-0.85,2.11-1.49,3.97-2.2,6.09
	c0,0-0.78,0.1-1.52,0.1c-0.62,0-1.15-0.11-1.15-0.11c4.68-14.16,9.56-21.2,9.56-21.2s0.73-0.12,1.69-0.11
	c0.83,0,1.56,0.12,1.56,0.12s2.45,7.04,2.37,21.19c0,0-0.69,0.12-1.16,0.12C525.3,388.57,524.59,388.45,524.59,388.45
	 M517.95,379.98L517.95,379.98l6.29-0.44c-0.34-3.43-0.75-6.6-1.24-9.96h-0.16C521.08,372.87,519.38,376.54,517.95,379.98
	 M633.17,369.14c0,0-0.9,1.26-2.37,2.11c0,0-1-1.76-3.62-1.77c-2.64,0-4.31,1.15-4.31,4.11c0.01,4.63,8.73,0.89,8.73,7.5
	c0.01,5.04-3.05,7.61-8.24,7.61c-4.02,0-5.67-2.42-5.67-2.42s0.88-1.37,2.38-1.98c0,0,1.1,1.86,3.7,1.86c2.84,0,4.95-1.27,4.95-4.53
	c-0.01-4.9-8.75-1.14-8.76-7.48c0-4.63,2.84-7.13,7.62-7.14C631.45,367.03,633.17,369.14,633.17,369.14"/>
</svg>